<mxfile host="app.diagrams.net" agent="Mozilla/5.0 (Macintosh; Intel Mac OS X 10_15_7) AppleWebKit/537.36 (KHTML, like Gecko) Chrome/127.0.0.0 Safari/537.36" version="24.7.7" pages="3">
  <diagram id="Ht1M8jgEwFfnCIfOTk4-" name="Estado Actual">
    <mxGraphModel dx="1340" dy="683" grid="1" gridSize="10" guides="1" tooltips="1" connect="1" arrows="1" fold="1" page="1" pageScale="1" pageWidth="1169" pageHeight="827" math="0" shadow="0">
      <root>
        <mxCell id="0" />
        <mxCell id="1" parent="0" />
        <mxCell id="Ac4WIPOSFiqi20QRBWpF-2" value="Estructura Actual CDS-Frontend on premise" style="swimlane;whiteSpace=wrap;html=1;" vertex="1" parent="1">
          <mxGeometry x="170" y="50" width="960" height="630" as="geometry" />
        </mxCell>
        <mxCell id="Ac4WIPOSFiqi20QRBWpF-50" style="edgeStyle=orthogonalEdgeStyle;rounded=0;orthogonalLoop=1;jettySize=auto;html=1;" edge="1" parent="Ac4WIPOSFiqi20QRBWpF-2" source="Ac4WIPOSFiqi20QRBWpF-3">
          <mxGeometry relative="1" as="geometry">
            <mxPoint x="280" y="279" as="targetPoint" />
          </mxGeometry>
        </mxCell>
        <mxCell id="Ac4WIPOSFiqi20QRBWpF-3" value="" style="sketch=0;points=[[0,0,0],[0.25,0,0],[0.5,0,0],[0.75,0,0],[1,0,0],[0,1,0],[0.25,1,0],[0.5,1,0],[0.75,1,0],[1,1,0],[0,0.25,0],[0,0.5,0],[0,0.75,0],[1,0.25,0],[1,0.5,0],[1,0.75,0]];outlineConnect=0;fontColor=#232F3E;fillColor=#ED7100;strokeColor=#ffffff;dashed=0;verticalLabelPosition=bottom;verticalAlign=top;align=center;html=1;fontSize=12;fontStyle=0;aspect=fixed;shape=mxgraph.aws4.resourceIcon;resIcon=mxgraph.aws4.elastic_load_balancing;" vertex="1" parent="Ac4WIPOSFiqi20QRBWpF-2">
          <mxGeometry x="60" y="240" width="78" height="78" as="geometry" />
        </mxCell>
        <mxCell id="Ac4WIPOSFiqi20QRBWpF-4" value="Cluster de BD mySql" style="swimlane;whiteSpace=wrap;html=1;" vertex="1" parent="Ac4WIPOSFiqi20QRBWpF-2">
          <mxGeometry x="760" y="120" width="140" height="210" as="geometry" />
        </mxCell>
        <mxCell id="Ac4WIPOSFiqi20QRBWpF-5" value="" style="sketch=0;outlineConnect=0;fontColor=#232F3E;gradientColor=none;fillColor=#C925D1;strokeColor=none;dashed=0;verticalLabelPosition=bottom;verticalAlign=top;align=center;html=1;fontSize=12;fontStyle=0;aspect=fixed;pointerEvents=1;shape=mxgraph.aws4.rds_mysql_instance;" vertex="1" parent="Ac4WIPOSFiqi20QRBWpF-4">
          <mxGeometry x="30" y="40" width="40" height="40" as="geometry" />
        </mxCell>
        <mxCell id="Ac4WIPOSFiqi20QRBWpF-54" value="" style="sketch=0;outlineConnect=0;fontColor=#232F3E;gradientColor=none;fillColor=#C925D1;strokeColor=none;dashed=0;verticalLabelPosition=bottom;verticalAlign=top;align=center;html=1;fontSize=12;fontStyle=0;aspect=fixed;pointerEvents=1;shape=mxgraph.aws4.rds_mysql_instance;" vertex="1" parent="Ac4WIPOSFiqi20QRBWpF-4">
          <mxGeometry x="80" y="40" width="40" height="40" as="geometry" />
        </mxCell>
        <mxCell id="Ac4WIPOSFiqi20QRBWpF-57" value="" style="sketch=0;outlineConnect=0;fontColor=#232F3E;gradientColor=none;fillColor=#C925D1;strokeColor=none;dashed=0;verticalLabelPosition=bottom;verticalAlign=top;align=center;html=1;fontSize=12;fontStyle=0;aspect=fixed;pointerEvents=1;shape=mxgraph.aws4.rds_mysql_instance;" vertex="1" parent="Ac4WIPOSFiqi20QRBWpF-4">
          <mxGeometry x="80" y="90" width="40" height="40" as="geometry" />
        </mxCell>
        <mxCell id="Ac4WIPOSFiqi20QRBWpF-56" value="" style="sketch=0;outlineConnect=0;fontColor=#232F3E;gradientColor=none;fillColor=#C925D1;strokeColor=none;dashed=0;verticalLabelPosition=bottom;verticalAlign=top;align=center;html=1;fontSize=12;fontStyle=0;aspect=fixed;pointerEvents=1;shape=mxgraph.aws4.rds_mysql_instance;" vertex="1" parent="Ac4WIPOSFiqi20QRBWpF-4">
          <mxGeometry x="30" y="90" width="40" height="40" as="geometry" />
        </mxCell>
        <mxCell id="Ac4WIPOSFiqi20QRBWpF-59" value="" style="sketch=0;outlineConnect=0;fontColor=#232F3E;gradientColor=none;fillColor=#C925D1;strokeColor=none;dashed=0;verticalLabelPosition=bottom;verticalAlign=top;align=center;html=1;fontSize=12;fontStyle=0;aspect=fixed;pointerEvents=1;shape=mxgraph.aws4.rds_mysql_instance;" vertex="1" parent="Ac4WIPOSFiqi20QRBWpF-4">
          <mxGeometry x="30" y="140" width="40" height="40" as="geometry" />
        </mxCell>
        <mxCell id="Ac4WIPOSFiqi20QRBWpF-60" value="" style="sketch=0;outlineConnect=0;fontColor=#232F3E;gradientColor=none;fillColor=#C925D1;strokeColor=none;dashed=0;verticalLabelPosition=bottom;verticalAlign=top;align=center;html=1;fontSize=12;fontStyle=0;aspect=fixed;pointerEvents=1;shape=mxgraph.aws4.rds_mysql_instance;" vertex="1" parent="Ac4WIPOSFiqi20QRBWpF-4">
          <mxGeometry x="80" y="140" width="40" height="40" as="geometry" />
        </mxCell>
        <mxCell id="Ac4WIPOSFiqi20QRBWpF-8" value="cds-frontend" style="swimlane;whiteSpace=wrap;html=1;" vertex="1" parent="Ac4WIPOSFiqi20QRBWpF-2">
          <mxGeometry x="280" y="120" width="300" height="290" as="geometry" />
        </mxCell>
        <mxCell id="Ac4WIPOSFiqi20QRBWpF-24" value="" style="sketch=0;html=1;aspect=fixed;strokeColor=none;shadow=0;fillColor=#3B8DF1;verticalAlign=top;labelPosition=center;verticalLabelPosition=bottom;shape=mxgraph.gcp2.process" vertex="1" parent="Ac4WIPOSFiqi20QRBWpF-8">
          <mxGeometry x="21.200000000000003" y="40" width="58.8" height="70" as="geometry" />
        </mxCell>
        <mxCell id="Ac4WIPOSFiqi20QRBWpF-28" value="api compartir" style="text;html=1;align=center;verticalAlign=middle;whiteSpace=wrap;rounded=0;" vertex="1" parent="Ac4WIPOSFiqi20QRBWpF-8">
          <mxGeometry x="20.000000000000014" y="110" width="60" height="30" as="geometry" />
        </mxCell>
        <mxCell id="Ac4WIPOSFiqi20QRBWpF-29" value="" style="sketch=0;html=1;aspect=fixed;strokeColor=none;shadow=0;fillColor=#3B8DF1;verticalAlign=top;labelPosition=center;verticalLabelPosition=bottom;shape=mxgraph.gcp2.process" vertex="1" parent="Ac4WIPOSFiqi20QRBWpF-8">
          <mxGeometry x="112.39999999999999" y="40" width="58.8" height="70" as="geometry" />
        </mxCell>
        <mxCell id="Ac4WIPOSFiqi20QRBWpF-30" value="api core" style="text;html=1;align=center;verticalAlign=middle;whiteSpace=wrap;rounded=0;" vertex="1" parent="Ac4WIPOSFiqi20QRBWpF-8">
          <mxGeometry x="111.2" y="110" width="60" height="30" as="geometry" />
        </mxCell>
        <mxCell id="Ac4WIPOSFiqi20QRBWpF-33" value="" style="sketch=0;html=1;aspect=fixed;strokeColor=none;shadow=0;fillColor=#3B8DF1;verticalAlign=top;labelPosition=center;verticalLabelPosition=bottom;shape=mxgraph.gcp2.process" vertex="1" parent="Ac4WIPOSFiqi20QRBWpF-8">
          <mxGeometry x="207.40000000000003" y="40" width="58.8" height="70" as="geometry" />
        </mxCell>
        <mxCell id="Ac4WIPOSFiqi20QRBWpF-34" value="api usuari" style="text;html=1;align=center;verticalAlign=middle;whiteSpace=wrap;rounded=0;" vertex="1" parent="Ac4WIPOSFiqi20QRBWpF-8">
          <mxGeometry x="206.2" y="110" width="60" height="30" as="geometry" />
        </mxCell>
        <mxCell id="Ac4WIPOSFiqi20QRBWpF-35" value="" style="sketch=0;html=1;aspect=fixed;strokeColor=none;shadow=0;fillColor=#3B8DF1;verticalAlign=top;labelPosition=center;verticalLabelPosition=bottom;shape=mxgraph.gcp2.process" vertex="1" parent="Ac4WIPOSFiqi20QRBWpF-8">
          <mxGeometry x="208.60000000000002" y="160" width="58.8" height="70" as="geometry" />
        </mxCell>
        <mxCell id="Ac4WIPOSFiqi20QRBWpF-36" value="api contenidos" style="text;html=1;align=center;verticalAlign=middle;whiteSpace=wrap;rounded=0;" vertex="1" parent="Ac4WIPOSFiqi20QRBWpF-8">
          <mxGeometry x="207.39999999999998" y="230" width="60" height="30" as="geometry" />
        </mxCell>
        <mxCell id="Ac4WIPOSFiqi20QRBWpF-37" value="" style="sketch=0;html=1;aspect=fixed;strokeColor=none;shadow=0;fillColor=#3B8DF1;verticalAlign=top;labelPosition=center;verticalLabelPosition=bottom;shape=mxgraph.gcp2.process" vertex="1" parent="Ac4WIPOSFiqi20QRBWpF-8">
          <mxGeometry x="22.40000000000005" y="160" width="58.8" height="70" as="geometry" />
        </mxCell>
        <mxCell id="Ac4WIPOSFiqi20QRBWpF-38" value="api sync" style="text;html=1;align=center;verticalAlign=middle;whiteSpace=wrap;rounded=0;" vertex="1" parent="Ac4WIPOSFiqi20QRBWpF-8">
          <mxGeometry x="21.200000000000003" y="230" width="60" height="30" as="geometry" />
        </mxCell>
        <mxCell id="Ac4WIPOSFiqi20QRBWpF-39" value="" style="sketch=0;html=1;aspect=fixed;strokeColor=none;shadow=0;fillColor=#3B8DF1;verticalAlign=top;labelPosition=center;verticalLabelPosition=bottom;shape=mxgraph.gcp2.process" vertex="1" parent="Ac4WIPOSFiqi20QRBWpF-8">
          <mxGeometry x="113.60000000000004" y="160" width="58.8" height="70" as="geometry" />
        </mxCell>
        <mxCell id="Ac4WIPOSFiqi20QRBWpF-40" value="api reproduccion" style="text;html=1;align=center;verticalAlign=middle;whiteSpace=wrap;rounded=0;" vertex="1" parent="Ac4WIPOSFiqi20QRBWpF-8">
          <mxGeometry x="112.39999999999999" y="230" width="60" height="30" as="geometry" />
        </mxCell>
        <mxCell id="Ac4WIPOSFiqi20QRBWpF-48" value="balanceador" style="text;html=1;align=center;verticalAlign=middle;whiteSpace=wrap;rounded=0;" vertex="1" parent="Ac4WIPOSFiqi20QRBWpF-2">
          <mxGeometry x="69" y="334" width="60" height="30" as="geometry" />
        </mxCell>
        <mxCell id="Ac4WIPOSFiqi20QRBWpF-64" style="edgeStyle=orthogonalEdgeStyle;rounded=0;orthogonalLoop=1;jettySize=auto;html=1;entryX=0.5;entryY=1;entryDx=0;entryDy=0;startArrow=classicThin;startFill=1;" edge="1" parent="Ac4WIPOSFiqi20QRBWpF-2" source="Ac4WIPOSFiqi20QRBWpF-53" target="Ac4WIPOSFiqi20QRBWpF-8">
          <mxGeometry relative="1" as="geometry" />
        </mxCell>
        <mxCell id="Ac4WIPOSFiqi20QRBWpF-53" value="Memcached Cluster" style="swimlane;whiteSpace=wrap;html=1;" vertex="1" parent="Ac4WIPOSFiqi20QRBWpF-2">
          <mxGeometry x="310" y="480" width="240" height="110" as="geometry" />
        </mxCell>
        <mxCell id="Ac4WIPOSFiqi20QRBWpF-51" value="" style="image;aspect=fixed;html=1;points=[];align=center;fontSize=12;image=img/lib/azure2/general/Cache.svg;" vertex="1" parent="Ac4WIPOSFiqi20QRBWpF-53">
          <mxGeometry x="30" y="33" width="47" height="47" as="geometry" />
        </mxCell>
        <mxCell id="Ac4WIPOSFiqi20QRBWpF-62" value="" style="image;aspect=fixed;html=1;points=[];align=center;fontSize=12;image=img/lib/azure2/general/Cache.svg;" vertex="1" parent="Ac4WIPOSFiqi20QRBWpF-53">
          <mxGeometry x="90" y="33" width="47" height="47" as="geometry" />
        </mxCell>
        <mxCell id="Ac4WIPOSFiqi20QRBWpF-63" value="" style="image;aspect=fixed;html=1;points=[];align=center;fontSize=12;image=img/lib/azure2/general/Cache.svg;" vertex="1" parent="Ac4WIPOSFiqi20QRBWpF-53">
          <mxGeometry x="150" y="33" width="47" height="47" as="geometry" />
        </mxCell>
        <mxCell id="Ac4WIPOSFiqi20QRBWpF-69" style="edgeStyle=orthogonalEdgeStyle;rounded=0;orthogonalLoop=1;jettySize=auto;html=1;entryX=0;entryY=0.5;entryDx=0;entryDy=0;" edge="1" parent="Ac4WIPOSFiqi20QRBWpF-2" source="Ac4WIPOSFiqi20QRBWpF-67" target="Ac4WIPOSFiqi20QRBWpF-4">
          <mxGeometry relative="1" as="geometry" />
        </mxCell>
        <mxCell id="Ac4WIPOSFiqi20QRBWpF-70" style="edgeStyle=orthogonalEdgeStyle;rounded=0;orthogonalLoop=1;jettySize=auto;html=1;" edge="1" parent="Ac4WIPOSFiqi20QRBWpF-2" source="Ac4WIPOSFiqi20QRBWpF-67">
          <mxGeometry relative="1" as="geometry">
            <mxPoint x="580" y="270" as="targetPoint" />
          </mxGeometry>
        </mxCell>
        <mxCell id="Ac4WIPOSFiqi20QRBWpF-67" value="" style="sketch=0;pointerEvents=1;shadow=0;dashed=0;html=1;strokeColor=none;fillColor=#505050;labelPosition=center;verticalLabelPosition=bottom;verticalAlign=top;outlineConnect=0;align=center;shape=mxgraph.office.servers.reverse_proxy;" vertex="1" parent="Ac4WIPOSFiqi20QRBWpF-2">
          <mxGeometry x="650" y="235" width="41" height="53" as="geometry" />
        </mxCell>
        <mxCell id="Ac4WIPOSFiqi20QRBWpF-68" value="Proxy" style="text;html=1;align=center;verticalAlign=middle;whiteSpace=wrap;rounded=0;" vertex="1" parent="Ac4WIPOSFiqi20QRBWpF-2">
          <mxGeometry x="631" y="288" width="60" height="30" as="geometry" />
        </mxCell>
        <mxCell id="Ac4WIPOSFiqi20QRBWpF-49" style="edgeStyle=orthogonalEdgeStyle;rounded=0;orthogonalLoop=1;jettySize=auto;html=1;" edge="1" parent="1" source="Ac4WIPOSFiqi20QRBWpF-47" target="Ac4WIPOSFiqi20QRBWpF-3">
          <mxGeometry relative="1" as="geometry" />
        </mxCell>
        <mxCell id="Ac4WIPOSFiqi20QRBWpF-47" value="" style="sketch=0;outlineConnect=0;fontColor=#232F3E;gradientColor=none;fillColor=#232F3D;strokeColor=none;dashed=0;verticalLabelPosition=bottom;verticalAlign=top;align=center;html=1;fontSize=12;fontStyle=0;aspect=fixed;pointerEvents=1;shape=mxgraph.aws4.users;" vertex="1" parent="1">
          <mxGeometry x="30" y="290" width="78" height="78" as="geometry" />
        </mxCell>
      </root>
    </mxGraphModel>
  </diagram>
  <diagram name="Etapa 1 - Api Gateway - Cache" id="Z1QEGIGEOoJsZThyFfZr">
    <mxGraphModel dx="1340" dy="683" grid="1" gridSize="10" guides="1" tooltips="1" connect="1" arrows="1" fold="1" page="1" pageScale="1" pageWidth="1169" pageHeight="827" math="0" shadow="0">
      <root>
        <mxCell id="WkhB6MqnOmmRNj--FXNi-0" />
        <mxCell id="WkhB6MqnOmmRNj--FXNi-1" parent="WkhB6MqnOmmRNj--FXNi-0" />
        <mxCell id="WkhB6MqnOmmRNj--FXNi-2" value="Estructura después 1er Etapa CDS-Frontend on premise" style="swimlane;whiteSpace=wrap;html=1;" vertex="1" parent="WkhB6MqnOmmRNj--FXNi-1">
          <mxGeometry x="170" y="70" width="960" height="630" as="geometry" />
        </mxCell>
        <mxCell id="WkhB6MqnOmmRNj--FXNi-5" value="Cluster de BD mySql" style="swimlane;whiteSpace=wrap;html=1;" vertex="1" parent="WkhB6MqnOmmRNj--FXNi-2">
          <mxGeometry x="760" y="120" width="140" height="210" as="geometry" />
        </mxCell>
        <mxCell id="WkhB6MqnOmmRNj--FXNi-6" value="" style="sketch=0;outlineConnect=0;fontColor=#232F3E;gradientColor=none;fillColor=#C925D1;strokeColor=none;dashed=0;verticalLabelPosition=bottom;verticalAlign=top;align=center;html=1;fontSize=12;fontStyle=0;aspect=fixed;pointerEvents=1;shape=mxgraph.aws4.rds_mysql_instance;" vertex="1" parent="WkhB6MqnOmmRNj--FXNi-5">
          <mxGeometry x="30" y="40" width="40" height="40" as="geometry" />
        </mxCell>
        <mxCell id="WkhB6MqnOmmRNj--FXNi-7" value="" style="sketch=0;outlineConnect=0;fontColor=#232F3E;gradientColor=none;fillColor=#C925D1;strokeColor=none;dashed=0;verticalLabelPosition=bottom;verticalAlign=top;align=center;html=1;fontSize=12;fontStyle=0;aspect=fixed;pointerEvents=1;shape=mxgraph.aws4.rds_mysql_instance;" vertex="1" parent="WkhB6MqnOmmRNj--FXNi-5">
          <mxGeometry x="80" y="40" width="40" height="40" as="geometry" />
        </mxCell>
        <mxCell id="WkhB6MqnOmmRNj--FXNi-8" value="" style="sketch=0;outlineConnect=0;fontColor=#232F3E;gradientColor=none;fillColor=#C925D1;strokeColor=none;dashed=0;verticalLabelPosition=bottom;verticalAlign=top;align=center;html=1;fontSize=12;fontStyle=0;aspect=fixed;pointerEvents=1;shape=mxgraph.aws4.rds_mysql_instance;" vertex="1" parent="WkhB6MqnOmmRNj--FXNi-5">
          <mxGeometry x="80" y="90" width="40" height="40" as="geometry" />
        </mxCell>
        <mxCell id="WkhB6MqnOmmRNj--FXNi-9" value="" style="sketch=0;outlineConnect=0;fontColor=#232F3E;gradientColor=none;fillColor=#C925D1;strokeColor=none;dashed=0;verticalLabelPosition=bottom;verticalAlign=top;align=center;html=1;fontSize=12;fontStyle=0;aspect=fixed;pointerEvents=1;shape=mxgraph.aws4.rds_mysql_instance;" vertex="1" parent="WkhB6MqnOmmRNj--FXNi-5">
          <mxGeometry x="30" y="90" width="40" height="40" as="geometry" />
        </mxCell>
        <mxCell id="WkhB6MqnOmmRNj--FXNi-10" value="" style="sketch=0;outlineConnect=0;fontColor=#232F3E;gradientColor=none;fillColor=#C925D1;strokeColor=none;dashed=0;verticalLabelPosition=bottom;verticalAlign=top;align=center;html=1;fontSize=12;fontStyle=0;aspect=fixed;pointerEvents=1;shape=mxgraph.aws4.rds_mysql_instance;" vertex="1" parent="WkhB6MqnOmmRNj--FXNi-5">
          <mxGeometry x="30" y="140" width="40" height="40" as="geometry" />
        </mxCell>
        <mxCell id="WkhB6MqnOmmRNj--FXNi-11" value="" style="sketch=0;outlineConnect=0;fontColor=#232F3E;gradientColor=none;fillColor=#C925D1;strokeColor=none;dashed=0;verticalLabelPosition=bottom;verticalAlign=top;align=center;html=1;fontSize=12;fontStyle=0;aspect=fixed;pointerEvents=1;shape=mxgraph.aws4.rds_mysql_instance;" vertex="1" parent="WkhB6MqnOmmRNj--FXNi-5">
          <mxGeometry x="80" y="140" width="40" height="40" as="geometry" />
        </mxCell>
        <mxCell id="WkhB6MqnOmmRNj--FXNi-12" value="cds-frontend" style="swimlane;whiteSpace=wrap;html=1;" vertex="1" parent="WkhB6MqnOmmRNj--FXNi-2">
          <mxGeometry x="340" y="120" width="300" height="290" as="geometry" />
        </mxCell>
        <mxCell id="WkhB6MqnOmmRNj--FXNi-13" value="" style="sketch=0;html=1;aspect=fixed;strokeColor=none;shadow=0;fillColor=#3B8DF1;verticalAlign=top;labelPosition=center;verticalLabelPosition=bottom;shape=mxgraph.gcp2.process" vertex="1" parent="WkhB6MqnOmmRNj--FXNi-12">
          <mxGeometry x="21.200000000000003" y="40" width="58.8" height="70" as="geometry" />
        </mxCell>
        <mxCell id="WkhB6MqnOmmRNj--FXNi-14" value="api compartir" style="text;html=1;align=center;verticalAlign=middle;whiteSpace=wrap;rounded=0;" vertex="1" parent="WkhB6MqnOmmRNj--FXNi-12">
          <mxGeometry x="20.000000000000014" y="110" width="60" height="30" as="geometry" />
        </mxCell>
        <mxCell id="WkhB6MqnOmmRNj--FXNi-15" value="" style="sketch=0;html=1;aspect=fixed;strokeColor=none;shadow=0;fillColor=#3B8DF1;verticalAlign=top;labelPosition=center;verticalLabelPosition=bottom;shape=mxgraph.gcp2.process" vertex="1" parent="WkhB6MqnOmmRNj--FXNi-12">
          <mxGeometry x="112.39999999999999" y="40" width="58.8" height="70" as="geometry" />
        </mxCell>
        <mxCell id="WkhB6MqnOmmRNj--FXNi-16" value="api core" style="text;html=1;align=center;verticalAlign=middle;whiteSpace=wrap;rounded=0;" vertex="1" parent="WkhB6MqnOmmRNj--FXNi-12">
          <mxGeometry x="111.2" y="110" width="60" height="30" as="geometry" />
        </mxCell>
        <mxCell id="WkhB6MqnOmmRNj--FXNi-17" value="" style="sketch=0;html=1;aspect=fixed;strokeColor=none;shadow=0;fillColor=#3B8DF1;verticalAlign=top;labelPosition=center;verticalLabelPosition=bottom;shape=mxgraph.gcp2.process" vertex="1" parent="WkhB6MqnOmmRNj--FXNi-12">
          <mxGeometry x="207.40000000000003" y="40" width="58.8" height="70" as="geometry" />
        </mxCell>
        <mxCell id="WkhB6MqnOmmRNj--FXNi-18" value="api usuari" style="text;html=1;align=center;verticalAlign=middle;whiteSpace=wrap;rounded=0;" vertex="1" parent="WkhB6MqnOmmRNj--FXNi-12">
          <mxGeometry x="206.2" y="110" width="60" height="30" as="geometry" />
        </mxCell>
        <mxCell id="WkhB6MqnOmmRNj--FXNi-19" value="" style="sketch=0;html=1;aspect=fixed;strokeColor=none;shadow=0;fillColor=#3B8DF1;verticalAlign=top;labelPosition=center;verticalLabelPosition=bottom;shape=mxgraph.gcp2.process" vertex="1" parent="WkhB6MqnOmmRNj--FXNi-12">
          <mxGeometry x="208.60000000000002" y="160" width="58.8" height="70" as="geometry" />
        </mxCell>
        <mxCell id="WkhB6MqnOmmRNj--FXNi-20" value="api contenidos" style="text;html=1;align=center;verticalAlign=middle;whiteSpace=wrap;rounded=0;" vertex="1" parent="WkhB6MqnOmmRNj--FXNi-12">
          <mxGeometry x="207.39999999999998" y="230" width="60" height="30" as="geometry" />
        </mxCell>
        <mxCell id="WkhB6MqnOmmRNj--FXNi-21" value="" style="sketch=0;html=1;aspect=fixed;strokeColor=none;shadow=0;fillColor=#3B8DF1;verticalAlign=top;labelPosition=center;verticalLabelPosition=bottom;shape=mxgraph.gcp2.process" vertex="1" parent="WkhB6MqnOmmRNj--FXNi-12">
          <mxGeometry x="22.40000000000005" y="160" width="58.8" height="70" as="geometry" />
        </mxCell>
        <mxCell id="WkhB6MqnOmmRNj--FXNi-22" value="api sync" style="text;html=1;align=center;verticalAlign=middle;whiteSpace=wrap;rounded=0;" vertex="1" parent="WkhB6MqnOmmRNj--FXNi-12">
          <mxGeometry x="21.200000000000003" y="230" width="60" height="30" as="geometry" />
        </mxCell>
        <mxCell id="WkhB6MqnOmmRNj--FXNi-23" value="" style="sketch=0;html=1;aspect=fixed;strokeColor=none;shadow=0;fillColor=#3B8DF1;verticalAlign=top;labelPosition=center;verticalLabelPosition=bottom;shape=mxgraph.gcp2.process" vertex="1" parent="WkhB6MqnOmmRNj--FXNi-12">
          <mxGeometry x="113.60000000000004" y="160" width="58.8" height="70" as="geometry" />
        </mxCell>
        <mxCell id="WkhB6MqnOmmRNj--FXNi-24" value="api reproduccion" style="text;html=1;align=center;verticalAlign=middle;whiteSpace=wrap;rounded=0;" vertex="1" parent="WkhB6MqnOmmRNj--FXNi-12">
          <mxGeometry x="112.39999999999999" y="230" width="60" height="30" as="geometry" />
        </mxCell>
        <mxCell id="WkhB6MqnOmmRNj--FXNi-26" style="edgeStyle=orthogonalEdgeStyle;rounded=0;orthogonalLoop=1;jettySize=auto;html=1;entryX=0.5;entryY=1;entryDx=0;entryDy=0;startArrow=classicThin;startFill=1;" edge="1" parent="WkhB6MqnOmmRNj--FXNi-2" source="WkhB6MqnOmmRNj--FXNi-27" target="WkhB6MqnOmmRNj--FXNi-12">
          <mxGeometry relative="1" as="geometry" />
        </mxCell>
        <mxCell id="WkhB6MqnOmmRNj--FXNi-27" value="Memcached Cluster" style="swimlane;whiteSpace=wrap;html=1;" vertex="1" parent="WkhB6MqnOmmRNj--FXNi-2">
          <mxGeometry x="310" y="480" width="240" height="110" as="geometry" />
        </mxCell>
        <mxCell id="WkhB6MqnOmmRNj--FXNi-28" value="" style="image;aspect=fixed;html=1;points=[];align=center;fontSize=12;image=img/lib/azure2/general/Cache.svg;" vertex="1" parent="WkhB6MqnOmmRNj--FXNi-27">
          <mxGeometry x="30" y="33" width="47" height="47" as="geometry" />
        </mxCell>
        <mxCell id="WkhB6MqnOmmRNj--FXNi-29" value="" style="image;aspect=fixed;html=1;points=[];align=center;fontSize=12;image=img/lib/azure2/general/Cache.svg;" vertex="1" parent="WkhB6MqnOmmRNj--FXNi-27">
          <mxGeometry x="90" y="33" width="47" height="47" as="geometry" />
        </mxCell>
        <mxCell id="WkhB6MqnOmmRNj--FXNi-30" value="" style="image;aspect=fixed;html=1;points=[];align=center;fontSize=12;image=img/lib/azure2/general/Cache.svg;" vertex="1" parent="WkhB6MqnOmmRNj--FXNi-27">
          <mxGeometry x="150" y="33" width="47" height="47" as="geometry" />
        </mxCell>
        <mxCell id="WkhB6MqnOmmRNj--FXNi-31" style="edgeStyle=orthogonalEdgeStyle;rounded=0;orthogonalLoop=1;jettySize=auto;html=1;entryX=0;entryY=0.5;entryDx=0;entryDy=0;" edge="1" parent="WkhB6MqnOmmRNj--FXNi-2" source="WkhB6MqnOmmRNj--FXNi-33" target="WkhB6MqnOmmRNj--FXNi-5">
          <mxGeometry relative="1" as="geometry" />
        </mxCell>
        <mxCell id="WkhB6MqnOmmRNj--FXNi-32" style="edgeStyle=orthogonalEdgeStyle;rounded=0;orthogonalLoop=1;jettySize=auto;html=1;" edge="1" parent="WkhB6MqnOmmRNj--FXNi-2" source="WkhB6MqnOmmRNj--FXNi-33">
          <mxGeometry relative="1" as="geometry">
            <mxPoint x="640" y="280" as="targetPoint" />
          </mxGeometry>
        </mxCell>
        <mxCell id="WkhB6MqnOmmRNj--FXNi-33" value="" style="sketch=0;pointerEvents=1;shadow=0;dashed=0;html=1;strokeColor=none;fillColor=#505050;labelPosition=center;verticalLabelPosition=bottom;verticalAlign=top;outlineConnect=0;align=center;shape=mxgraph.office.servers.reverse_proxy;" vertex="1" parent="WkhB6MqnOmmRNj--FXNi-2">
          <mxGeometry x="680" y="230" width="41" height="53" as="geometry" />
        </mxCell>
        <mxCell id="WkhB6MqnOmmRNj--FXNi-34" value="Proxy BD" style="text;html=1;align=center;verticalAlign=middle;whiteSpace=wrap;rounded=0;" vertex="1" parent="WkhB6MqnOmmRNj--FXNi-2">
          <mxGeometry x="652" y="288" width="89" height="30" as="geometry" />
        </mxCell>
        <mxCell id="SPDAClw_gmDvVpPwjiVl-1" style="edgeStyle=orthogonalEdgeStyle;rounded=0;orthogonalLoop=1;jettySize=auto;html=1;entryX=0;entryY=0.5;entryDx=0;entryDy=0;" edge="1" parent="WkhB6MqnOmmRNj--FXNi-2" source="SPDAClw_gmDvVpPwjiVl-0" target="WkhB6MqnOmmRNj--FXNi-12">
          <mxGeometry relative="1" as="geometry" />
        </mxCell>
        <mxCell id="SPDAClw_gmDvVpPwjiVl-8" style="edgeStyle=orthogonalEdgeStyle;rounded=0;orthogonalLoop=1;jettySize=auto;html=1;startArrow=classicThin;startFill=1;" edge="1" parent="WkhB6MqnOmmRNj--FXNi-2" source="SPDAClw_gmDvVpPwjiVl-0" target="SPDAClw_gmDvVpPwjiVl-7">
          <mxGeometry relative="1" as="geometry" />
        </mxCell>
        <mxCell id="SPDAClw_gmDvVpPwjiVl-0" value="" style="sketch=0;points=[[0,0,0],[0.25,0,0],[0.5,0,0],[0.75,0,0],[1,0,0],[0,1,0],[0.25,1,0],[0.5,1,0],[0.75,1,0],[1,1,0],[0,0.25,0],[0,0.5,0],[0,0.75,0],[1,0.25,0],[1,0.5,0],[1,0.75,0]];outlineConnect=0;fontColor=#232F3E;fillColor=#E7157B;strokeColor=#ffffff;dashed=0;verticalLabelPosition=bottom;verticalAlign=top;align=center;html=1;fontSize=12;fontStyle=0;aspect=fixed;shape=mxgraph.aws4.resourceIcon;resIcon=mxgraph.aws4.api_gateway;" vertex="1" parent="WkhB6MqnOmmRNj--FXNi-2">
          <mxGeometry x="120" y="180" width="78" height="78" as="geometry" />
        </mxCell>
        <mxCell id="SPDAClw_gmDvVpPwjiVl-2" value="Kong Community Edition/ Enterprise Edition" style="text;html=1;align=center;verticalAlign=middle;whiteSpace=wrap;rounded=0;fillColor=#ffe6cc;strokeColor=#d79b00;" vertex="1" parent="WkhB6MqnOmmRNj--FXNi-2">
          <mxGeometry x="73.5" y="270" width="171" height="40" as="geometry" />
        </mxCell>
        <mxCell id="SPDAClw_gmDvVpPwjiVl-6" value="Balanceador de Carga&lt;div&gt;Api Gateway&lt;/div&gt;&lt;div&gt;Caché de respuesta&lt;/div&gt;" style="text;html=1;align=center;verticalAlign=middle;whiteSpace=wrap;rounded=0;" vertex="1" parent="WkhB6MqnOmmRNj--FXNi-2">
          <mxGeometry x="80" y="310" width="171" height="52" as="geometry" />
        </mxCell>
        <mxCell id="SPDAClw_gmDvVpPwjiVl-7" value="" style="sketch=0;outlineConnect=0;fontColor=#232F3E;gradientColor=none;fillColor=#8C4FFF;strokeColor=none;dashed=0;verticalLabelPosition=bottom;verticalAlign=top;align=center;html=1;fontSize=12;fontStyle=0;aspect=fixed;pointerEvents=1;shape=mxgraph.aws4.opensearch_dashboards;" vertex="1" parent="WkhB6MqnOmmRNj--FXNi-2">
          <mxGeometry x="120" y="80" width="79.32" height="60" as="geometry" />
        </mxCell>
        <mxCell id="SPDAClw_gmDvVpPwjiVl-9" value="Konga" style="text;html=1;align=center;verticalAlign=middle;whiteSpace=wrap;rounded=0;fillColor=#ffe6cc;strokeColor=#d79b00;" vertex="1" parent="WkhB6MqnOmmRNj--FXNi-2">
          <mxGeometry x="40" y="95" width="70" height="30" as="geometry" />
        </mxCell>
        <mxCell id="rBxAFrC0pXOsSTSq8PAp-0" value="Opciones Opensource:&lt;br&gt;- HAProxy, Nginx, y Traefik&lt;br&gt;- Varnish, Redis, y Memcached" style="text;html=1;align=center;verticalAlign=middle;whiteSpace=wrap;rounded=0;" vertex="1" parent="WkhB6MqnOmmRNj--FXNi-2">
          <mxGeometry x="74.16" y="370" width="171" height="52" as="geometry" />
        </mxCell>
        <mxCell id="WkhB6MqnOmmRNj--FXNi-35" style="edgeStyle=orthogonalEdgeStyle;rounded=0;orthogonalLoop=1;jettySize=auto;html=1;entryX=0;entryY=0.5;entryDx=0;entryDy=0;entryPerimeter=0;" edge="1" parent="WkhB6MqnOmmRNj--FXNi-1" source="WkhB6MqnOmmRNj--FXNi-36" target="SPDAClw_gmDvVpPwjiVl-0">
          <mxGeometry relative="1" as="geometry">
            <mxPoint x="220" y="349" as="targetPoint" />
          </mxGeometry>
        </mxCell>
        <mxCell id="WkhB6MqnOmmRNj--FXNi-36" value="" style="sketch=0;outlineConnect=0;fontColor=#232F3E;gradientColor=none;fillColor=#232F3D;strokeColor=none;dashed=0;verticalLabelPosition=bottom;verticalAlign=top;align=center;html=1;fontSize=12;fontStyle=0;aspect=fixed;pointerEvents=1;shape=mxgraph.aws4.users;" vertex="1" parent="WkhB6MqnOmmRNj--FXNi-1">
          <mxGeometry x="30" y="290" width="78" height="78" as="geometry" />
        </mxCell>
      </root>
    </mxGraphModel>
  </diagram>
  <diagram name="Etapa 3 - Desglose API" id="nduGcI5L-z4Zy9Qe6sDN">
    <mxGraphModel dx="1340" dy="683" grid="1" gridSize="10" guides="1" tooltips="1" connect="1" arrows="1" fold="1" page="1" pageScale="1" pageWidth="1169" pageHeight="827" math="0" shadow="0">
      <root>
        <mxCell id="f7iGe_YgDoUXXHbwSH-8-0" />
        <mxCell id="f7iGe_YgDoUXXHbwSH-8-1" parent="f7iGe_YgDoUXXHbwSH-8-0" />
        <mxCell id="f7iGe_YgDoUXXHbwSH-8-2" value="Estructura después 2da Etapa CDS-Frontend on premise" style="swimlane;whiteSpace=wrap;html=1;" vertex="1" parent="f7iGe_YgDoUXXHbwSH-8-1">
          <mxGeometry x="170" y="70" width="960" height="630" as="geometry" />
        </mxCell>
        <mxCell id="f7iGe_YgDoUXXHbwSH-8-3" value="Cluster de BD mySql" style="swimlane;whiteSpace=wrap;html=1;" vertex="1" parent="f7iGe_YgDoUXXHbwSH-8-2">
          <mxGeometry x="760" y="192" width="140" height="210" as="geometry" />
        </mxCell>
        <mxCell id="f7iGe_YgDoUXXHbwSH-8-4" value="" style="sketch=0;outlineConnect=0;fontColor=#232F3E;gradientColor=none;fillColor=#C925D1;strokeColor=none;dashed=0;verticalLabelPosition=bottom;verticalAlign=top;align=center;html=1;fontSize=12;fontStyle=0;aspect=fixed;pointerEvents=1;shape=mxgraph.aws4.rds_mysql_instance;" vertex="1" parent="f7iGe_YgDoUXXHbwSH-8-3">
          <mxGeometry x="30" y="40" width="40" height="40" as="geometry" />
        </mxCell>
        <mxCell id="f7iGe_YgDoUXXHbwSH-8-5" value="" style="sketch=0;outlineConnect=0;fontColor=#232F3E;gradientColor=none;fillColor=#C925D1;strokeColor=none;dashed=0;verticalLabelPosition=bottom;verticalAlign=top;align=center;html=1;fontSize=12;fontStyle=0;aspect=fixed;pointerEvents=1;shape=mxgraph.aws4.rds_mysql_instance;" vertex="1" parent="f7iGe_YgDoUXXHbwSH-8-3">
          <mxGeometry x="80" y="40" width="40" height="40" as="geometry" />
        </mxCell>
        <mxCell id="f7iGe_YgDoUXXHbwSH-8-6" value="" style="sketch=0;outlineConnect=0;fontColor=#232F3E;gradientColor=none;fillColor=#C925D1;strokeColor=none;dashed=0;verticalLabelPosition=bottom;verticalAlign=top;align=center;html=1;fontSize=12;fontStyle=0;aspect=fixed;pointerEvents=1;shape=mxgraph.aws4.rds_mysql_instance;" vertex="1" parent="f7iGe_YgDoUXXHbwSH-8-3">
          <mxGeometry x="80" y="90" width="40" height="40" as="geometry" />
        </mxCell>
        <mxCell id="f7iGe_YgDoUXXHbwSH-8-7" value="" style="sketch=0;outlineConnect=0;fontColor=#232F3E;gradientColor=none;fillColor=#C925D1;strokeColor=none;dashed=0;verticalLabelPosition=bottom;verticalAlign=top;align=center;html=1;fontSize=12;fontStyle=0;aspect=fixed;pointerEvents=1;shape=mxgraph.aws4.rds_mysql_instance;" vertex="1" parent="f7iGe_YgDoUXXHbwSH-8-3">
          <mxGeometry x="30" y="90" width="40" height="40" as="geometry" />
        </mxCell>
        <mxCell id="f7iGe_YgDoUXXHbwSH-8-8" value="" style="sketch=0;outlineConnect=0;fontColor=#232F3E;gradientColor=none;fillColor=#C925D1;strokeColor=none;dashed=0;verticalLabelPosition=bottom;verticalAlign=top;align=center;html=1;fontSize=12;fontStyle=0;aspect=fixed;pointerEvents=1;shape=mxgraph.aws4.rds_mysql_instance;" vertex="1" parent="f7iGe_YgDoUXXHbwSH-8-3">
          <mxGeometry x="30" y="140" width="40" height="40" as="geometry" />
        </mxCell>
        <mxCell id="f7iGe_YgDoUXXHbwSH-8-9" value="" style="sketch=0;outlineConnect=0;fontColor=#232F3E;gradientColor=none;fillColor=#C925D1;strokeColor=none;dashed=0;verticalLabelPosition=bottom;verticalAlign=top;align=center;html=1;fontSize=12;fontStyle=0;aspect=fixed;pointerEvents=1;shape=mxgraph.aws4.rds_mysql_instance;" vertex="1" parent="f7iGe_YgDoUXXHbwSH-8-3">
          <mxGeometry x="80" y="140" width="40" height="40" as="geometry" />
        </mxCell>
        <mxCell id="f7iGe_YgDoUXXHbwSH-8-24" value="Memcached Cluster" style="swimlane;whiteSpace=wrap;html=1;" vertex="1" parent="f7iGe_YgDoUXXHbwSH-8-2">
          <mxGeometry x="340" y="500" width="240" height="110" as="geometry" />
        </mxCell>
        <mxCell id="f7iGe_YgDoUXXHbwSH-8-25" value="" style="image;aspect=fixed;html=1;points=[];align=center;fontSize=12;image=img/lib/azure2/general/Cache.svg;" vertex="1" parent="f7iGe_YgDoUXXHbwSH-8-24">
          <mxGeometry x="30" y="33" width="47" height="47" as="geometry" />
        </mxCell>
        <mxCell id="f7iGe_YgDoUXXHbwSH-8-26" value="" style="image;aspect=fixed;html=1;points=[];align=center;fontSize=12;image=img/lib/azure2/general/Cache.svg;" vertex="1" parent="f7iGe_YgDoUXXHbwSH-8-24">
          <mxGeometry x="90" y="33" width="47" height="47" as="geometry" />
        </mxCell>
        <mxCell id="f7iGe_YgDoUXXHbwSH-8-27" value="" style="image;aspect=fixed;html=1;points=[];align=center;fontSize=12;image=img/lib/azure2/general/Cache.svg;" vertex="1" parent="f7iGe_YgDoUXXHbwSH-8-24">
          <mxGeometry x="150" y="33" width="47" height="47" as="geometry" />
        </mxCell>
        <mxCell id="f7iGe_YgDoUXXHbwSH-8-28" style="edgeStyle=orthogonalEdgeStyle;rounded=0;orthogonalLoop=1;jettySize=auto;html=1;entryX=0;entryY=0.5;entryDx=0;entryDy=0;" edge="1" parent="f7iGe_YgDoUXXHbwSH-8-2" source="f7iGe_YgDoUXXHbwSH-8-30" target="f7iGe_YgDoUXXHbwSH-8-3">
          <mxGeometry relative="1" as="geometry" />
        </mxCell>
        <mxCell id="f7iGe_YgDoUXXHbwSH-8-30" value="" style="sketch=0;pointerEvents=1;shadow=0;dashed=0;html=1;strokeColor=none;fillColor=#505050;labelPosition=center;verticalLabelPosition=bottom;verticalAlign=top;outlineConnect=0;align=center;shape=mxgraph.office.servers.reverse_proxy;" vertex="1" parent="f7iGe_YgDoUXXHbwSH-8-2">
          <mxGeometry x="670" y="269" width="41" height="53" as="geometry" />
        </mxCell>
        <mxCell id="f7iGe_YgDoUXXHbwSH-8-31" value="Proxy BD" style="text;html=1;align=center;verticalAlign=middle;whiteSpace=wrap;rounded=0;" vertex="1" parent="f7iGe_YgDoUXXHbwSH-8-2">
          <mxGeometry x="640" y="327" width="89" height="30" as="geometry" />
        </mxCell>
        <mxCell id="f7iGe_YgDoUXXHbwSH-8-33" style="edgeStyle=orthogonalEdgeStyle;rounded=0;orthogonalLoop=1;jettySize=auto;html=1;startArrow=classicThin;startFill=1;" edge="1" parent="f7iGe_YgDoUXXHbwSH-8-2" source="f7iGe_YgDoUXXHbwSH-8-34" target="f7iGe_YgDoUXXHbwSH-8-37">
          <mxGeometry relative="1" as="geometry" />
        </mxCell>
        <mxCell id="AD2Tv4GvOZyauW-2LLx4-10" style="edgeStyle=orthogonalEdgeStyle;rounded=0;orthogonalLoop=1;jettySize=auto;html=1;" edge="1" parent="f7iGe_YgDoUXXHbwSH-8-2" source="f7iGe_YgDoUXXHbwSH-8-34" target="f7iGe_YgDoUXXHbwSH-8-11">
          <mxGeometry relative="1" as="geometry" />
        </mxCell>
        <mxCell id="AD2Tv4GvOZyauW-2LLx4-13" style="edgeStyle=orthogonalEdgeStyle;rounded=0;orthogonalLoop=1;jettySize=auto;html=1;entryX=0.5;entryY=1;entryDx=0;entryDy=0;" edge="1" parent="f7iGe_YgDoUXXHbwSH-8-2" source="f7iGe_YgDoUXXHbwSH-8-34" target="f7iGe_YgDoUXXHbwSH-8-14">
          <mxGeometry relative="1" as="geometry" />
        </mxCell>
        <mxCell id="AD2Tv4GvOZyauW-2LLx4-14" style="edgeStyle=orthogonalEdgeStyle;rounded=0;orthogonalLoop=1;jettySize=auto;html=1;entryX=0.5;entryY=1;entryDx=0;entryDy=0;" edge="1" parent="f7iGe_YgDoUXXHbwSH-8-2" source="f7iGe_YgDoUXXHbwSH-8-34" target="f7iGe_YgDoUXXHbwSH-8-16">
          <mxGeometry relative="1" as="geometry" />
        </mxCell>
        <mxCell id="AD2Tv4GvOZyauW-2LLx4-15" style="edgeStyle=orthogonalEdgeStyle;rounded=0;orthogonalLoop=1;jettySize=auto;html=1;" edge="1" parent="f7iGe_YgDoUXXHbwSH-8-2" source="f7iGe_YgDoUXXHbwSH-8-34" target="f7iGe_YgDoUXXHbwSH-8-20">
          <mxGeometry relative="1" as="geometry" />
        </mxCell>
        <mxCell id="f7iGe_YgDoUXXHbwSH-8-34" value="" style="sketch=0;points=[[0,0,0],[0.25,0,0],[0.5,0,0],[0.75,0,0],[1,0,0],[0,1,0],[0.25,1,0],[0.5,1,0],[0.75,1,0],[1,1,0],[0,0.25,0],[0,0.5,0],[0,0.75,0],[1,0.25,0],[1,0.5,0],[1,0.75,0]];outlineConnect=0;fontColor=#232F3E;fillColor=#E7157B;strokeColor=#ffffff;dashed=0;verticalLabelPosition=bottom;verticalAlign=top;align=center;html=1;fontSize=12;fontStyle=0;aspect=fixed;shape=mxgraph.aws4.resourceIcon;resIcon=mxgraph.aws4.api_gateway;" vertex="1" parent="f7iGe_YgDoUXXHbwSH-8-2">
          <mxGeometry x="120" y="232" width="78" height="78" as="geometry" />
        </mxCell>
        <mxCell id="f7iGe_YgDoUXXHbwSH-8-35" value="Kong Community Edition/ Enterprise Edition" style="text;html=1;align=center;verticalAlign=middle;whiteSpace=wrap;rounded=0;fillColor=#ffe6cc;strokeColor=#d79b00;" vertex="1" parent="f7iGe_YgDoUXXHbwSH-8-2">
          <mxGeometry x="73.5" y="322" width="171" height="40" as="geometry" />
        </mxCell>
        <mxCell id="f7iGe_YgDoUXXHbwSH-8-36" value="Balanceador de Carga&lt;div&gt;Api Gateway&lt;/div&gt;&lt;div&gt;Caché de respuesta&lt;/div&gt;" style="text;html=1;align=center;verticalAlign=middle;whiteSpace=wrap;rounded=0;" vertex="1" parent="f7iGe_YgDoUXXHbwSH-8-2">
          <mxGeometry x="80" y="362" width="171" height="52" as="geometry" />
        </mxCell>
        <mxCell id="f7iGe_YgDoUXXHbwSH-8-37" value="" style="sketch=0;outlineConnect=0;fontColor=#232F3E;gradientColor=none;fillColor=#8C4FFF;strokeColor=none;dashed=0;verticalLabelPosition=bottom;verticalAlign=top;align=center;html=1;fontSize=12;fontStyle=0;aspect=fixed;pointerEvents=1;shape=mxgraph.aws4.opensearch_dashboards;" vertex="1" parent="f7iGe_YgDoUXXHbwSH-8-2">
          <mxGeometry x="120" y="132" width="79.32" height="60" as="geometry" />
        </mxCell>
        <mxCell id="f7iGe_YgDoUXXHbwSH-8-38" value="Konga" style="text;html=1;align=center;verticalAlign=middle;whiteSpace=wrap;rounded=0;fillColor=#ffe6cc;strokeColor=#d79b00;" vertex="1" parent="f7iGe_YgDoUXXHbwSH-8-2">
          <mxGeometry x="40" y="147" width="70" height="30" as="geometry" />
        </mxCell>
        <mxCell id="f7iGe_YgDoUXXHbwSH-8-39" value="Opciones Opensource:&lt;br&gt;- HAProxy, Nginx, y Traefik&lt;br&gt;- Varnish, Redis, y Memcached" style="text;html=1;align=center;verticalAlign=middle;whiteSpace=wrap;rounded=0;" vertex="1" parent="f7iGe_YgDoUXXHbwSH-8-2">
          <mxGeometry x="74.16" y="422" width="171" height="52" as="geometry" />
        </mxCell>
        <mxCell id="AD2Tv4GvOZyauW-2LLx4-0" value="" style="group" vertex="1" connectable="0" parent="f7iGe_YgDoUXXHbwSH-8-2">
          <mxGeometry x="320" y="330" width="60" height="105" as="geometry" />
        </mxCell>
        <mxCell id="f7iGe_YgDoUXXHbwSH-8-11" value="" style="sketch=0;html=1;aspect=fixed;strokeColor=none;shadow=0;fillColor=#3B8DF1;verticalAlign=top;labelPosition=center;verticalLabelPosition=bottom;shape=mxgraph.gcp2.process" vertex="1" parent="AD2Tv4GvOZyauW-2LLx4-0">
          <mxGeometry x="1.1999999999999886" width="58.8" height="70" as="geometry" />
        </mxCell>
        <mxCell id="f7iGe_YgDoUXXHbwSH-8-12" value="api compartir" style="text;html=1;align=center;verticalAlign=middle;whiteSpace=wrap;rounded=0;" vertex="1" parent="AD2Tv4GvOZyauW-2LLx4-0">
          <mxGeometry y="75" width="60" height="30" as="geometry" />
        </mxCell>
        <mxCell id="AD2Tv4GvOZyauW-2LLx4-1" value="" style="group" vertex="1" connectable="0" parent="f7iGe_YgDoUXXHbwSH-8-2">
          <mxGeometry x="310" y="105" width="60" height="105" as="geometry" />
        </mxCell>
        <mxCell id="f7iGe_YgDoUXXHbwSH-8-13" value="" style="sketch=0;html=1;aspect=fixed;strokeColor=none;shadow=0;fillColor=#3B8DF1;verticalAlign=top;labelPosition=center;verticalLabelPosition=bottom;shape=mxgraph.gcp2.process" vertex="1" parent="AD2Tv4GvOZyauW-2LLx4-1">
          <mxGeometry x="0.6000000000000227" width="58.8" height="70" as="geometry" />
        </mxCell>
        <mxCell id="f7iGe_YgDoUXXHbwSH-8-14" value="api core" style="text;html=1;align=center;verticalAlign=middle;whiteSpace=wrap;rounded=0;" vertex="1" parent="AD2Tv4GvOZyauW-2LLx4-1">
          <mxGeometry y="75" width="60" height="30" as="geometry" />
        </mxCell>
        <mxCell id="AD2Tv4GvOZyauW-2LLx4-2" value="" style="group" vertex="1" connectable="0" parent="f7iGe_YgDoUXXHbwSH-8-2">
          <mxGeometry x="429.99999999999994" y="100" width="70" height="105" as="geometry" />
        </mxCell>
        <mxCell id="f7iGe_YgDoUXXHbwSH-8-15" value="" style="sketch=0;html=1;aspect=fixed;strokeColor=none;shadow=0;fillColor=#3B8DF1;verticalAlign=top;labelPosition=center;verticalLabelPosition=bottom;shape=mxgraph.gcp2.process" vertex="1" parent="AD2Tv4GvOZyauW-2LLx4-2">
          <mxGeometry x="1.2000000000000455" width="58.8" height="70" as="geometry" />
        </mxCell>
        <mxCell id="f7iGe_YgDoUXXHbwSH-8-16" value="api usuario" style="text;html=1;align=center;verticalAlign=middle;whiteSpace=wrap;rounded=0;" vertex="1" parent="AD2Tv4GvOZyauW-2LLx4-2">
          <mxGeometry x="-4.4" y="75" width="70" height="30" as="geometry" />
        </mxCell>
        <mxCell id="AD2Tv4GvOZyauW-2LLx4-3" value="" style="group" vertex="1" connectable="0" parent="f7iGe_YgDoUXXHbwSH-8-2">
          <mxGeometry x="540" y="100" width="60" height="100" as="geometry" />
        </mxCell>
        <mxCell id="f7iGe_YgDoUXXHbwSH-8-19" value="" style="sketch=0;html=1;aspect=fixed;strokeColor=none;shadow=0;fillColor=#3B8DF1;verticalAlign=top;labelPosition=center;verticalLabelPosition=bottom;shape=mxgraph.gcp2.process" vertex="1" parent="AD2Tv4GvOZyauW-2LLx4-3">
          <mxGeometry x="1.2000000000000455" width="58.8" height="70" as="geometry" />
        </mxCell>
        <mxCell id="f7iGe_YgDoUXXHbwSH-8-20" value="api sync" style="text;html=1;align=center;verticalAlign=middle;whiteSpace=wrap;rounded=0;" vertex="1" parent="AD2Tv4GvOZyauW-2LLx4-3">
          <mxGeometry y="70" width="60" height="30" as="geometry" />
        </mxCell>
        <mxCell id="AD2Tv4GvOZyauW-2LLx4-4" value="" style="group" vertex="1" connectable="0" parent="f7iGe_YgDoUXXHbwSH-8-2">
          <mxGeometry x="439.99999999999994" y="330" width="60" height="100" as="geometry" />
        </mxCell>
        <mxCell id="f7iGe_YgDoUXXHbwSH-8-21" value="" style="sketch=0;html=1;aspect=fixed;strokeColor=none;shadow=0;fillColor=#3B8DF1;verticalAlign=top;labelPosition=center;verticalLabelPosition=bottom;shape=mxgraph.gcp2.process" vertex="1" parent="AD2Tv4GvOZyauW-2LLx4-4">
          <mxGeometry x="1.2000000000000455" width="58.8" height="70" as="geometry" />
        </mxCell>
        <mxCell id="f7iGe_YgDoUXXHbwSH-8-22" value="api reproduccion" style="text;html=1;align=center;verticalAlign=middle;whiteSpace=wrap;rounded=0;" vertex="1" parent="AD2Tv4GvOZyauW-2LLx4-4">
          <mxGeometry y="70" width="60" height="30" as="geometry" />
        </mxCell>
        <mxCell id="AD2Tv4GvOZyauW-2LLx4-5" value="" style="group" vertex="1" connectable="0" parent="f7iGe_YgDoUXXHbwSH-8-2">
          <mxGeometry x="550" y="330" width="60" height="100" as="geometry" />
        </mxCell>
        <mxCell id="f7iGe_YgDoUXXHbwSH-8-17" value="" style="sketch=0;html=1;aspect=fixed;strokeColor=none;shadow=0;fillColor=#3B8DF1;verticalAlign=top;labelPosition=center;verticalLabelPosition=bottom;shape=mxgraph.gcp2.process" vertex="1" parent="AD2Tv4GvOZyauW-2LLx4-5">
          <mxGeometry width="58.8" height="70" as="geometry" />
        </mxCell>
        <mxCell id="f7iGe_YgDoUXXHbwSH-8-18" value="api contenidos" style="text;html=1;align=center;verticalAlign=middle;whiteSpace=wrap;rounded=0;" vertex="1" parent="AD2Tv4GvOZyauW-2LLx4-5">
          <mxGeometry y="70" width="60" height="30" as="geometry" />
        </mxCell>
        <mxCell id="AD2Tv4GvOZyauW-2LLx4-7" style="edgeStyle=orthogonalEdgeStyle;rounded=0;orthogonalLoop=1;jettySize=auto;html=1;" edge="1" parent="f7iGe_YgDoUXXHbwSH-8-2" source="f7iGe_YgDoUXXHbwSH-8-12" target="f7iGe_YgDoUXXHbwSH-8-24">
          <mxGeometry relative="1" as="geometry" />
        </mxCell>
        <mxCell id="AD2Tv4GvOZyauW-2LLx4-11" style="edgeStyle=orthogonalEdgeStyle;rounded=0;orthogonalLoop=1;jettySize=auto;html=1;entryX=0.456;entryY=0.029;entryDx=0;entryDy=0;entryPerimeter=0;" edge="1" parent="f7iGe_YgDoUXXHbwSH-8-2" source="f7iGe_YgDoUXXHbwSH-8-34" target="f7iGe_YgDoUXXHbwSH-8-21">
          <mxGeometry relative="1" as="geometry" />
        </mxCell>
        <mxCell id="AD2Tv4GvOZyauW-2LLx4-12" style="edgeStyle=orthogonalEdgeStyle;rounded=0;orthogonalLoop=1;jettySize=auto;html=1;entryX=0.493;entryY=-0.014;entryDx=0;entryDy=0;entryPerimeter=0;" edge="1" parent="f7iGe_YgDoUXXHbwSH-8-2" source="f7iGe_YgDoUXXHbwSH-8-34" target="f7iGe_YgDoUXXHbwSH-8-17">
          <mxGeometry relative="1" as="geometry" />
        </mxCell>
        <mxCell id="AD2Tv4GvOZyauW-2LLx4-17" style="edgeStyle=orthogonalEdgeStyle;rounded=0;orthogonalLoop=1;jettySize=auto;html=1;entryX=0.583;entryY=0.091;entryDx=0;entryDy=0;entryPerimeter=0;" edge="1" parent="f7iGe_YgDoUXXHbwSH-8-2" source="f7iGe_YgDoUXXHbwSH-8-22" target="f7iGe_YgDoUXXHbwSH-8-24">
          <mxGeometry relative="1" as="geometry" />
        </mxCell>
        <mxCell id="AD2Tv4GvOZyauW-2LLx4-18" style="edgeStyle=orthogonalEdgeStyle;rounded=0;orthogonalLoop=1;jettySize=auto;html=1;entryX=0.783;entryY=0;entryDx=0;entryDy=0;entryPerimeter=0;" edge="1" parent="f7iGe_YgDoUXXHbwSH-8-2" source="f7iGe_YgDoUXXHbwSH-8-18" target="f7iGe_YgDoUXXHbwSH-8-24">
          <mxGeometry relative="1" as="geometry" />
        </mxCell>
        <mxCell id="AD2Tv4GvOZyauW-2LLx4-19" style="edgeStyle=orthogonalEdgeStyle;rounded=0;orthogonalLoop=1;jettySize=auto;html=1;" edge="1" parent="f7iGe_YgDoUXXHbwSH-8-2" source="f7iGe_YgDoUXXHbwSH-8-17" target="f7iGe_YgDoUXXHbwSH-8-30">
          <mxGeometry relative="1" as="geometry" />
        </mxCell>
        <mxCell id="AD2Tv4GvOZyauW-2LLx4-20" style="edgeStyle=orthogonalEdgeStyle;rounded=0;orthogonalLoop=1;jettySize=auto;html=1;" edge="1" parent="f7iGe_YgDoUXXHbwSH-8-2" source="f7iGe_YgDoUXXHbwSH-8-19" target="f7iGe_YgDoUXXHbwSH-8-30">
          <mxGeometry relative="1" as="geometry" />
        </mxCell>
        <mxCell id="AD2Tv4GvOZyauW-2LLx4-23" style="edgeStyle=orthogonalEdgeStyle;rounded=0;orthogonalLoop=1;jettySize=auto;html=1;" edge="1" parent="f7iGe_YgDoUXXHbwSH-8-2" source="f7iGe_YgDoUXXHbwSH-8-15" target="f7iGe_YgDoUXXHbwSH-8-30">
          <mxGeometry relative="1" as="geometry">
            <Array as="points">
              <mxPoint x="461" y="80" />
              <mxPoint x="650" y="80" />
              <mxPoint x="650" y="296" />
            </Array>
          </mxGeometry>
        </mxCell>
        <mxCell id="AD2Tv4GvOZyauW-2LLx4-24" style="edgeStyle=orthogonalEdgeStyle;rounded=0;orthogonalLoop=1;jettySize=auto;html=1;" edge="1" parent="f7iGe_YgDoUXXHbwSH-8-2" source="f7iGe_YgDoUXXHbwSH-8-13" target="f7iGe_YgDoUXXHbwSH-8-30">
          <mxGeometry relative="1" as="geometry">
            <mxPoint x="600" y="250" as="targetPoint" />
            <Array as="points">
              <mxPoint x="340" y="60" />
              <mxPoint x="630" y="60" />
              <mxPoint x="630" y="240" />
              <mxPoint x="680" y="240" />
            </Array>
          </mxGeometry>
        </mxCell>
        <mxCell id="f7iGe_YgDoUXXHbwSH-8-40" style="edgeStyle=orthogonalEdgeStyle;rounded=0;orthogonalLoop=1;jettySize=auto;html=1;entryX=0;entryY=0.5;entryDx=0;entryDy=0;entryPerimeter=0;" edge="1" parent="f7iGe_YgDoUXXHbwSH-8-1" source="f7iGe_YgDoUXXHbwSH-8-41" target="f7iGe_YgDoUXXHbwSH-8-34">
          <mxGeometry relative="1" as="geometry">
            <mxPoint x="220" y="349" as="targetPoint" />
          </mxGeometry>
        </mxCell>
        <mxCell id="f7iGe_YgDoUXXHbwSH-8-41" value="" style="sketch=0;outlineConnect=0;fontColor=#232F3E;gradientColor=none;fillColor=#232F3D;strokeColor=none;dashed=0;verticalLabelPosition=bottom;verticalAlign=top;align=center;html=1;fontSize=12;fontStyle=0;aspect=fixed;pointerEvents=1;shape=mxgraph.aws4.users;" vertex="1" parent="f7iGe_YgDoUXXHbwSH-8-1">
          <mxGeometry x="30" y="290" width="78" height="78" as="geometry" />
        </mxCell>
      </root>
    </mxGraphModel>
  </diagram>
</mxfile>
